STARTFONT 2.1
FONT -Monotype-Century Schoolbook-Bold-R-Normal--10-100-75-75-P-54-iso8859-2
SIZE 10 75 75
FONTBOUNDINGBOX 12 13 -2 -3

STARTPROPERTIES 24
FOUNDRY "Monotype"
FAMILY_NAME "Century Schoolbook"
WEIGHT_NAME "Bold"
SLANT "R"
SETWIDTH_NAME "Normal"
ADD_STYLE_NAME ""
PIXEL_SIZE 10
POINT_SIZE 100
RESOLUTION_X 75
RESOLUTION_Y 75
SPACING "P"
AVERAGE_WIDTH 54
CHARSET_REGISTRY "iso8859"
CHARSET_ENCODING "2"
FACE_NAME "Century Schoolbook Bold ISO Latin2"
_DEC_DEVICE_FONTNAMES "PS=centuryschoolbook-b-lat2"
COPYRIGHT "Copyright (c) 1994 Monotype Typography Ltd."
CAP_HEIGHT 9
X_HEIGHT 5
WEIGHT 10
QUAD_WIDTH 6
DEFAULT_CHAR 160
FONT_DESCENT 3
FONT_ASCENT 10
ENDPROPERTIES

CHARS 191

STARTCHAR space
ENCODING 32
SWIDTH 287 0
DWIDTH 3 0
BBX 0 0 0 0
BITMAP
ENDCHAR

STARTCHAR exclam
ENCODING 33
SWIDTH 296 0
DWIDTH 3 0
BBX 2 7 1 0
BITMAP
C0
C0
C0
C0
00
C0
C0
ENDCHAR

STARTCHAR quotedbl
ENCODING 34
SWIDTH 333 0
DWIDTH 3 0
BBX 3 3 0 4
BITMAP
A0
A0
A0
ENDCHAR

STARTCHAR numbersign
ENCODING 35
SWIDTH 574 0
DWIDTH 6 0
BBX 7 8 -1 -1
BITMAP
14
14
7E
28
28
FC
50
50
ENDCHAR

STARTCHAR dollar
ENCODING 36
SWIDTH 574 0
DWIDTH 6 0
BBX 5 9 0 -1
BITMAP
20
70
A8
E0
70
38
A8
70
20
ENDCHAR

STARTCHAR percent
ENCODING 37
SWIDTH 833 0
DWIDTH 8 0
BBX 7 7 0 0
BITMAP
44
A8
A8
54
2A
2A
44
ENDCHAR

STARTCHAR ampersand
ENCODING 38
SWIDTH 852 0
DWIDTH 9 0
BBX 7 7 1 0
BITMAP
30
68
68
76
D4
DC
76
ENDCHAR

STARTCHAR quoteright
ENCODING 39
SWIDTH 241 0
DWIDTH 2 0
BBX 2 4 0 3
BITMAP
C0
C0
40
80
ENDCHAR

STARTCHAR parenleft
ENCODING 40
SWIDTH 389 0
DWIDTH 4 0
BBX 3 9 1 -2
BITMAP
20
40
40
C0
C0
C0
40
40
20
ENDCHAR

STARTCHAR parenright
ENCODING 41
SWIDTH 389 0
DWIDTH 4 0
BBX 3 9 0 -2
BITMAP
80
40
40
60
60
60
40
40
80
ENDCHAR

STARTCHAR asterisk
ENCODING 42
SWIDTH 500 0
DWIDTH 5 0
BBX 5 4 0 3
BITMAP
20
F8
70
50
ENDCHAR

STARTCHAR plus
ENCODING 43
SWIDTH 606 0
DWIDTH 6 0
BBX 5 5 0 1
BITMAP
20
20
F8
20
20
ENDCHAR

STARTCHAR comma
ENCODING 44
SWIDTH 278 0
DWIDTH 3 0
BBX 2 4 1 -2
BITMAP
C0
C0
40
80
ENDCHAR

STARTCHAR minus
ENCODING 45
SWIDTH 606 0
DWIDTH 6 0
BBX 5 1 0 3
BITMAP
F8
ENDCHAR

STARTCHAR period
ENCODING 46
SWIDTH 278 0
DWIDTH 3 0
BBX 2 2 1 0
BITMAP
C0
C0
ENDCHAR

STARTCHAR slash
ENCODING 47
SWIDTH 278 0
DWIDTH 3 0
BBX 3 7 0 0
BITMAP
20
20
60
40
C0
80
80
ENDCHAR

STARTCHAR zero
ENCODING 48
SWIDTH 574 0
DWIDTH 6 0
BBX 5 7 0 0
BITMAP
70
D8
D8
D8
D8
D8
70
ENDCHAR

STARTCHAR one
ENCODING 49
SWIDTH 574 0
DWIDTH 6 0
BBX 4 7 1 0
BITMAP
60
E0
60
60
60
60
F0
ENDCHAR

STARTCHAR two
ENCODING 50
SWIDTH 574 0
DWIDTH 6 0
BBX 5 7 0 0
BITMAP
70
B8
98
30
60
88
F8
ENDCHAR

STARTCHAR three
ENCODING 51
SWIDTH 574 0
DWIDTH 6 0
BBX 5 7 0 0
BITMAP
70
98
18
70
18
98
70
ENDCHAR

STARTCHAR four
ENCODING 52
SWIDTH 574 0
DWIDTH 6 0
BBX 6 7 0 0
BITMAP
18
38
58
98
FC
18
3C
ENDCHAR

STARTCHAR five
ENCODING 53
SWIDTH 574 0
DWIDTH 6 0
BBX 5 7 0 0
BITMAP
F8
80
F0
98
18
98
70
ENDCHAR

STARTCHAR six
ENCODING 54
SWIDTH 574 0
DWIDTH 6 0
BBX 5 7 0 0
BITMAP
70
C8
C0
F0
D8
D8
70
ENDCHAR

STARTCHAR seven
ENCODING 55
SWIDTH 574 0
DWIDTH 6 0
BBX 5 7 0 0
BITMAP
78
C8
18
30
30
60
60
ENDCHAR

STARTCHAR eight
ENCODING 56
SWIDTH 574 0
DWIDTH 6 0
BBX 5 7 0 0
BITMAP
70
D8
C8
70
98
D8
70
ENDCHAR

STARTCHAR nine
ENCODING 57
SWIDTH 574 0
DWIDTH 6 0
BBX 5 7 0 0
BITMAP
70
D8
D8
78
18
98
70
ENDCHAR

STARTCHAR colon
ENCODING 58
SWIDTH 278 0
DWIDTH 3 0
BBX 2 5 1 0
BITMAP
C0
C0
00
C0
C0
ENDCHAR

STARTCHAR semicolon
ENCODING 59
SWIDTH 278 0
DWIDTH 3 0
BBX 2 7 1 -2
BITMAP
C0
C0
00
C0
C0
40
80
ENDCHAR

STARTCHAR less
ENCODING 60
SWIDTH 606 0
DWIDTH 6 0
BBX 5 5 0 1
BITMAP
18
70
C0
70
18
ENDCHAR

STARTCHAR equal
ENCODING 61
SWIDTH 606 0
DWIDTH 6 0
BBX 5 3 0 2
BITMAP
F8
00
F8
ENDCHAR

STARTCHAR greater
ENCODING 62
SWIDTH 606 0
DWIDTH 6 0
BBX 5 5 0 1
BITMAP
C0
70
18
70
C0
ENDCHAR

STARTCHAR question
ENCODING 63
SWIDTH 500 0
DWIDTH 5 0
BBX 5 7 0 0
BITMAP
70
D8
18
30
00
30
30
ENDCHAR

STARTCHAR at
ENCODING 64
SWIDTH 747 0
DWIDTH 7 0
BBX 8 8 0 -1
BITMAP
1C
62
5D
A5
AA
BD
42
3C
ENDCHAR

STARTCHAR A
ENCODING 65
SWIDTH 759 0
DWIDTH 8 0
BBX 8 7 0 0
BITMAP
10
18
38
2C
7C
46
EF
ENDCHAR

STARTCHAR B
ENCODING 66
SWIDTH 778 0
DWIDTH 8 0
BBX 7 7 0 0
BITMAP
FC
66
66
7C
66
66
FC
ENDCHAR

STARTCHAR C
ENCODING 67
SWIDTH 778 0
DWIDTH 8 0
BBX 7 7 0 0
BITMAP
3A
66
C2
C0
C0
62
3C
ENDCHAR

STARTCHAR D
ENCODING 68
SWIDTH 833 0
DWIDTH 8 0
BBX 7 7 0 0
BITMAP
F8
6C
66
66
66
6C
F8
ENDCHAR

STARTCHAR E
ENCODING 69
SWIDTH 759 0
DWIDTH 8 0
BBX 7 7 0 0
BITMAP
FE
62
68
78
68
62
FE
ENDCHAR

STARTCHAR F
ENCODING 70
SWIDTH 722 0
DWIDTH 7 0
BBX 7 7 0 0
BITMAP
FE
62
68
78
68
60
F0
ENDCHAR

STARTCHAR G
ENCODING 71
SWIDTH 833 0
DWIDTH 8 0
BBX 7 7 0 0
BITMAP
34
6C
C0
DE
CC
6C
34
ENDCHAR

STARTCHAR H
ENCODING 72
SWIDTH 870 0
DWIDTH 9 0
BBX 8 7 0 0
BITMAP
F7
66
66
7E
66
66
EF
ENDCHAR

STARTCHAR I
ENCODING 73
SWIDTH 444 0
DWIDTH 5 0
BBX 4 7 0 0
BITMAP
F0
60
60
60
60
60
F0
ENDCHAR

STARTCHAR J
ENCODING 74
SWIDTH 648 0
DWIDTH 6 0
BBX 6 7 -1 0
BITMAP
3C
18
18
18
58
D8
70
ENDCHAR

STARTCHAR K
ENCODING 75
SWIDTH 815 0
DWIDTH 8 0
BBX 8 7 0 0
BITMAP
F7
64
68
78
6C
66
F7
ENDCHAR

STARTCHAR L
ENCODING 76
SWIDTH 722 0
DWIDTH 7 0
BBX 6 7 0 0
BITMAP
F0
60
60
60
60
64
FC
ENDCHAR

STARTCHAR M
ENCODING 77
SWIDTH 981 0
DWIDTH 11 0
BBX 10 7 0 0
BITMAP
E1C0
6380
7380
5580
5D80
4980
EBC0
ENDCHAR

STARTCHAR N
ENCODING 78
SWIDTH 833 0
DWIDTH 8 0
BBX 8 7 0 0
BITMAP
E7
72
72
5A
4E
4E
E6
ENDCHAR

STARTCHAR O
ENCODING 79
SWIDTH 833 0
DWIDTH 8 0
BBX 7 7 0 0
BITMAP
38
6C
C6
C6
C6
6C
38
ENDCHAR

STARTCHAR P
ENCODING 80
SWIDTH 759 0
DWIDTH 8 0
BBX 7 7 0 0
BITMAP
FC
66
66
7C
60
60
F0
ENDCHAR

STARTCHAR Q
ENCODING 81
SWIDTH 833 0
DWIDTH 8 0
BBX 7 9 0 -2
BITMAP
38
6C
C6
C6
D6
6C
38
1A
0C
ENDCHAR

STARTCHAR R
ENCODING 82
SWIDTH 815 0
DWIDTH 8 0
BBX 8 7 0 0
BITMAP
FC
66
66
7C
6C
6D
E6
ENDCHAR

STARTCHAR S
ENCODING 83
SWIDTH 667 0
DWIDTH 7 0
BBX 6 7 0 0
BITMAP
74
CC
E4
78
9C
CC
B8
ENDCHAR

STARTCHAR T
ENCODING 84
SWIDTH 722 0
DWIDTH 7 0
BBX 8 7 -1 0
BITMAP
7E
DB
99
18
18
18
3C
ENDCHAR

STARTCHAR U
ENCODING 85
SWIDTH 833 0
DWIDTH 8 0
BBX 7 7 0 0
BITMAP
EE
64
64
64
64
64
38
ENDCHAR

STARTCHAR V
ENCODING 86
SWIDTH 759 0
DWIDTH 7 0
BBX 8 7 -1 0
BITMAP
F7
62
62
34
34
18
18
ENDCHAR

STARTCHAR W
ENCODING 87
SWIDTH 981 0
DWIDTH 10 0
BBX 11 7 -1 0
BITMAP
F6E0
6640
6640
3680
3A80
1B00
1B00
ENDCHAR

STARTCHAR X
ENCODING 88
SWIDTH 722 0
DWIDTH 6 0
BBX 7 7 -1 0
BITMAP
F6
64
38
38
38
4C
DE
ENDCHAR

STARTCHAR Y
ENCODING 89
SWIDTH 722 0
DWIDTH 7 0
BBX 8 7 -1 0
BITMAP
F7
62
34
18
18
18
3C
ENDCHAR

STARTCHAR Z
ENCODING 90
SWIDTH 667 0
DWIDTH 7 0
BBX 6 7 0 0
BITMAP
FC
8C
18
30
60
C4
FC
ENDCHAR

STARTCHAR bracketleft
ENCODING 91
SWIDTH 389 0
DWIDTH 4 0
BBX 3 9 1 -2
BITMAP
E0
C0
C0
C0
C0
C0
C0
C0
E0
ENDCHAR

STARTCHAR backslash
ENCODING 92
SWIDTH 606 0
DWIDTH 6 0
BBX 6 7 0 0
BITMAP
C0
40
20
30
10
08
0C
ENDCHAR

STARTCHAR bracketright
ENCODING 93
SWIDTH 389 0
DWIDTH 4 0
BBX 3 9 0 -2
BITMAP
E0
60
60
60
60
60
60
60
E0
ENDCHAR

STARTCHAR asciicircum
ENCODING 94
SWIDTH 606 0
DWIDTH 6 0
BBX 5 4 1 3
BITMAP
20
20
70
88
ENDCHAR

STARTCHAR underscore
ENCODING 95
SWIDTH 500 0
DWIDTH 5 0
BBX 5 1 0 -2
BITMAP
F8
ENDCHAR

STARTCHAR quoteleft
ENCODING 96
SWIDTH 241 0
DWIDTH 2 0
BBX 2 4 0 3
BITMAP
40
80
C0
C0
ENDCHAR

STARTCHAR a
ENCODING 97
SWIDTH 611 0
DWIDTH 6 0
BBX 6 5 0 0
BITMAP
70
98
78
D8
6C
ENDCHAR

STARTCHAR b
ENCODING 98
SWIDTH 648 0
DWIDTH 6 0
BBX 6 7 -1 0
BITMAP
E0
60
78
6C
6C
6C
58
ENDCHAR

STARTCHAR c
ENCODING 99
SWIDTH 556 0
DWIDTH 6 0
BBX 5 5 0 0
BITMAP
70
D8
C0
C8
70
ENDCHAR

STARTCHAR d
ENCODING 100
SWIDTH 667 0
DWIDTH 6 0
BBX 6 7 0 0
BITMAP
38
18
78
D8
D8
D8
6C
ENDCHAR

STARTCHAR e
ENCODING 101
SWIDTH 574 0
DWIDTH 6 0
BBX 5 5 0 0
BITMAP
70
D8
F8
C0
78
ENDCHAR

STARTCHAR f
ENCODING 102
SWIDTH 389 0
DWIDTH 5 0
BBX 5 7 0 0
BITMAP
38
60
F0
60
60
60
F0
ENDCHAR

STARTCHAR g
ENCODING 103
SWIDTH 611 0
DWIDTH 6 0
BBX 5 7 0 -2
BITMAP
68
D0
D0
60
70
98
70
ENDCHAR

STARTCHAR h
ENCODING 104
SWIDTH 685 0
DWIDTH 7 0
BBX 7 7 0 0
BITMAP
E0
60
78
6C
6C
6C
EE
ENDCHAR

STARTCHAR i
ENCODING 105
SWIDTH 370 0
DWIDTH 4 0
BBX 4 7 0 0
BITMAP
60
00
E0
60
60
60
F0
ENDCHAR

STARTCHAR j
ENCODING 106
SWIDTH 352 0
DWIDTH 4 0
BBX 4 9 -1 -2
BITMAP
30
00
70
30
30
30
30
30
E0
ENDCHAR

STARTCHAR k
ENCODING 107
SWIDTH 667 0
DWIDTH 7 0
BBX 6 7 0 0
BITMAP
E0
60
6C
68
70
68
EC
ENDCHAR

STARTCHAR l
ENCODING 108
SWIDTH 352 0
DWIDTH 4 0
BBX 4 7 0 0
BITMAP
E0
60
60
60
60
60
F0
ENDCHAR

STARTCHAR m
ENCODING 109
SWIDTH 963 0
DWIDTH 10 0
BBX 10 5 0 0
BITMAP
FF00
6D80
6D80
6D80
EDC0
ENDCHAR

STARTCHAR n
ENCODING 110
SWIDTH 685 0
DWIDTH 7 0
BBX 7 5 0 0
BITMAP
F8
6C
6C
6C
EE
ENDCHAR

STARTCHAR o
ENCODING 111
SWIDTH 611 0
DWIDTH 6 0
BBX 5 5 0 0
BITMAP
70
D8
D8
D8
70
ENDCHAR

STARTCHAR p
ENCODING 112
SWIDTH 667 0
DWIDTH 7 0
BBX 6 7 0 -2
BITMAP
F8
6C
6C
6C
78
60
F0
ENDCHAR

STARTCHAR q
ENCODING 113
SWIDTH 648 0
DWIDTH 6 0
BBX 6 7 0 -2
BITMAP
78
D8
D8
D8
78
18
3C
ENDCHAR

STARTCHAR r
ENCODING 114
SWIDTH 519 0
DWIDTH 5 0
BBX 5 5 0 0
BITMAP
D8
68
60
60
F0
ENDCHAR

STARTCHAR s
ENCODING 115
SWIDTH 500 0
DWIDTH 5 0
BBX 4 5 0 0
BITMAP
70
C0
60
30
E0
ENDCHAR

STARTCHAR t
ENCODING 116
SWIDTH 426 0
DWIDTH 5 0
BBX 5 6 0 0
BITMAP
60
F0
60
60
68
30
ENDCHAR

STARTCHAR u
ENCODING 117
SWIDTH 685 0
DWIDTH 7 0
BBX 7 5 0 0
BITMAP
EC
6C
6C
6C
3E
ENDCHAR

STARTCHAR v
ENCODING 118
SWIDTH 611 0
DWIDTH 5 0
BBX 6 5 -1 0
BITMAP
EC
68
68
30
30
ENDCHAR

STARTCHAR w
ENCODING 119
SWIDTH 889 0
DWIDTH 9 0
BBX 9 5 0 0
BITMAP
ED80
6D00
6D00
3600
3600
ENDCHAR

STARTCHAR x
ENCODING 120
SWIDTH 611 0
DWIDTH 6 0
BBX 6 5 0 0
BITMAP
EC
68
30
58
DC
ENDCHAR

STARTCHAR y
ENCODING 121
SWIDTH 611 0
DWIDTH 6 0
BBX 6 7 0 -2
BITMAP
EC
68
68
30
30
A0
C0
ENDCHAR

STARTCHAR z
ENCODING 122
SWIDTH 537 0
DWIDTH 5 0
BBX 4 5 0 0
BITMAP
F0
B0
60
D0
F0
ENDCHAR

STARTCHAR braceleft
ENCODING 123
SWIDTH 389 0
DWIDTH 4 0
BBX 3 9 1 -2
BITMAP
20
40
C0
40
80
40
C0
40
20
ENDCHAR

STARTCHAR bar
ENCODING 124
SWIDTH 606 0
DWIDTH 6 0
BBX 2 9 2 -2
BITMAP
C0
C0
C0
C0
C0
C0
C0
C0
C0
ENDCHAR

STARTCHAR braceright
ENCODING 125
SWIDTH 389 0
DWIDTH 4 0
BBX 3 9 0 -2
BITMAP
80
40
60
40
20
40
60
40
80
ENDCHAR

STARTCHAR asciitilde
ENCODING 126
SWIDTH 606 0
DWIDTH 6 0
BBX 6 2 0 2
BITMAP
74
B8
ENDCHAR

STARTCHAR space
ENCODING 160
SWIDTH 287 0
DWIDTH 4 0
BBX 0 0 0 0
BITMAP
ENDCHAR

STARTCHAR Aogonek
ENCODING 161
SWIDTH 759 0
DWIDTH 8 0
BBX 8 9 0 -2
BITMAP
10
18
38
2C
7C
46
EF
04
03
ENDCHAR

STARTCHAR breve
ENCODING 162
SWIDTH 333 0
DWIDTH 3 0
BBX 4 2 0 6
BITMAP
90
60
ENDCHAR

STARTCHAR Lslash
ENCODING 163
SWIDTH 722 0
DWIDTH 7 0
BBX 6 7 0 0
BITMAP
F0
60
70
E0
60
64
FC
ENDCHAR

STARTCHAR currency
ENCODING 164
SWIDTH 606 0
DWIDTH 6 0
BBX 6 5 0 1
BITMAP
B4
CC
48
CC
B4
ENDCHAR

STARTCHAR Lcaron
ENCODING 165
SWIDTH 722 0
DWIDTH 7 0
BBX 7 7 0 0
BITMAP
F6
62
64
60
60
64
FC
ENDCHAR

STARTCHAR Sacute
ENCODING 166
SWIDTH 667 0
DWIDTH 7 0
BBX 6 10 0 0
BITMAP
08
10
00
74
CC
E4
78
9C
CC
B8
ENDCHAR

STARTCHAR section
ENCODING 167
SWIDTH 500 0
DWIDTH 5 0
BBX 5 9 0 -2
BITMAP
60
90
C0
60
D0
58
30
90
60
ENDCHAR

STARTCHAR dieresis
ENCODING 168
SWIDTH 333 0
DWIDTH 3 0
BBX 3 1 0 6
BITMAP
A0
ENDCHAR

STARTCHAR Scaron
ENCODING 169
SWIDTH 667 0
DWIDTH 7 0
BBX 6 10 0 0
BITMAP
28
10
00
74
CC
E4
78
9C
CC
B8
ENDCHAR

STARTCHAR Scommaaccent
ENCODING 170
SWIDTH 667 0
DWIDTH 7 0
BBX 6 10 0 -3
BITMAP
74
CC
E4
78
9C
CC
B8
00
10
20
ENDCHAR

STARTCHAR Tcaron
ENCODING 171
SWIDTH 722 0
DWIDTH 7 0
BBX 8 10 -1 0
BITMAP
14
08
00
7E
DB
99
18
18
18
3C
ENDCHAR

STARTCHAR Zacute
ENCODING 172
SWIDTH 667 0
DWIDTH 7 0
BBX 6 10 0 0
BITMAP
08
10
00
FC
8C
18
30
60
C4
FC
ENDCHAR

STARTCHAR hyphen
ENCODING 173
SWIDTH 333 0
DWIDTH 3 0
BBX 2 1 0 2
BITMAP
C0
ENDCHAR

STARTCHAR Zcaron
ENCODING 174
SWIDTH 667 0
DWIDTH 7 0
BBX 6 10 0 0
BITMAP
28
10
00
FC
8C
18
30
60
C4
FC
ENDCHAR

STARTCHAR Zdotaccent
ENCODING 175
SWIDTH 667 0
DWIDTH 7 0
BBX 6 9 0 0
BITMAP
10
00
FC
8C
18
30
60
C4
FC
ENDCHAR

STARTCHAR degree
ENCODING 176
SWIDTH 400 0
DWIDTH 4 0
BBX 3 3 0 4
BITMAP
40
A0
40
ENDCHAR

STARTCHAR aogonek
ENCODING 177
SWIDTH 611 0
DWIDTH 6 0
BBX 7 7 0 -2
BITMAP
70
98
78
D8
6C
08
06
ENDCHAR

STARTCHAR ogonek
ENCODING 178
SWIDTH 333 0
DWIDTH 3 0
BBX 3 2 0 -2
BITMAP
80
60
ENDCHAR

STARTCHAR lslash
ENCODING 179
SWIDTH 352 0
DWIDTH 4 0
BBX 4 7 0 0
BITMAP
E0
60
70
E0
60
60
F0
ENDCHAR

STARTCHAR acute
ENCODING 180
SWIDTH 333 0
DWIDTH 3 0
BBX 2 2 1 6
BITMAP
40
80
ENDCHAR

STARTCHAR lcaron
ENCODING 181
SWIDTH 443 0
DWIDTH 4 0
BBX 5 7 0 0
BITMAP
E8
68
70
60
60
60
F0
ENDCHAR

STARTCHAR sacute
ENCODING 182
SWIDTH 500 0
DWIDTH 5 0
BBX 4 8 0 0
BITMAP
10
20
00
70
C0
60
30
E0
ENDCHAR

STARTCHAR caron
ENCODING 183
SWIDTH 333 0
DWIDTH 3 0
BBX 3 2 0 6
BITMAP
A0
40
ENDCHAR

STARTCHAR commaaccent
ENCODING 184
SWIDTH 333 0
DWIDTH 3 0
BBX 2 2 0 -3
BITMAP
40
80
ENDCHAR

STARTCHAR scaron
ENCODING 185
SWIDTH 500 0
DWIDTH 5 0
BBX 4 8 0 0
BITMAP
50
20
00
70
C0
60
30
E0
ENDCHAR

STARTCHAR scommaaccent
ENCODING 186
SWIDTH 500 0
DWIDTH 5 0
BBX 4 8 0 -3
BITMAP
70
C0
60
30
E0
00
40
80
ENDCHAR

STARTCHAR tcaron
ENCODING 187
SWIDTH 549 0
DWIDTH 5 0
BBX 5 7 0 0
BITMAP
08
68
F0
60
60
68
30
ENDCHAR

STARTCHAR zacute
ENCODING 188
SWIDTH 537 0
DWIDTH 5 0
BBX 4 8 0 0
BITMAP
10
20
00
F0
B0
60
D0
F0
ENDCHAR

STARTCHAR hungarumlaut
ENCODING 189
SWIDTH 333 0
DWIDTH 3 0
BBX 4 2 0 6
BITMAP
50
A0
ENDCHAR

STARTCHAR zcaron
ENCODING 190
SWIDTH 537 0
DWIDTH 5 0
BBX 4 8 0 0
BITMAP
50
20
00
F0
B0
60
D0
F0
ENDCHAR

STARTCHAR zdotaccent
ENCODING 191
SWIDTH 537 0
DWIDTH 5 0
BBX 4 7 0 0
BITMAP
20
00
F0
B0
60
D0
F0
ENDCHAR

STARTCHAR Racute
ENCODING 192
SWIDTH 815 0
DWIDTH 8 0
BBX 8 10 0 0
BITMAP
08
10
00
FC
66
66
7C
6C
6D
E6
ENDCHAR

STARTCHAR Aacute
ENCODING 193
SWIDTH 759 0
DWIDTH 8 0
BBX 8 10 0 0
BITMAP
08
10
00
10
18
38
2C
7C
46
EF
ENDCHAR

STARTCHAR Acircumflex
ENCODING 194
SWIDTH 759 0
DWIDTH 8 0
BBX 8 10 0 0
BITMAP
10
28
00
10
18
38
2C
7C
46
EF
ENDCHAR

STARTCHAR Abreve
ENCODING 195
SWIDTH 759 0
DWIDTH 8 0
BBX 8 10 0 0
BITMAP
24
18
00
10
18
38
2C
7C
46
EF
ENDCHAR

STARTCHAR Adieresis
ENCODING 196
SWIDTH 759 0
DWIDTH 8 0
BBX 8 9 0 0
BITMAP
28
00
10
18
38
2C
7C
46
EF
ENDCHAR

STARTCHAR Lacute
ENCODING 197
SWIDTH 722 0
DWIDTH 7 0
BBX 6 10 0 0
BITMAP
10
20
00
F0
60
60
60
60
64
FC
ENDCHAR

STARTCHAR Cacute
ENCODING 198
SWIDTH 778 0
DWIDTH 8 0
BBX 7 10 0 0
BITMAP
08
10
00
3A
66
C2
C0
C0
62
3C
ENDCHAR

STARTCHAR Ccedilla
ENCODING 199
SWIDTH 778 0
DWIDTH 8 0
BBX 7 10 0 -3
BITMAP
3A
66
C2
C0
C0
62
3C
10
08
30
ENDCHAR

STARTCHAR Ccaron
ENCODING 200
SWIDTH 778 0
DWIDTH 8 0
BBX 7 10 0 0
BITMAP
28
10
00
3A
66
C2
C0
C0
62
3C
ENDCHAR

STARTCHAR Eacute
ENCODING 201
SWIDTH 759 0
DWIDTH 8 0
BBX 7 10 0 0
BITMAP
08
10
00
FE
62
68
78
68
62
FE
ENDCHAR

STARTCHAR Eogonek
ENCODING 202
SWIDTH 759 0
DWIDTH 8 0
BBX 7 9 0 -2
BITMAP
FE
62
68
78
68
62
FE
08
06
ENDCHAR

STARTCHAR Edieresis
ENCODING 203
SWIDTH 759 0
DWIDTH 8 0
BBX 7 9 0 0
BITMAP
28
00
FE
62
68
78
68
62
FE
ENDCHAR

STARTCHAR Ecaron
ENCODING 204
SWIDTH 759 0
DWIDTH 8 0
BBX 7 10 0 0
BITMAP
28
10
00
FE
62
68
78
68
62
FE
ENDCHAR

STARTCHAR Iacute
ENCODING 205
SWIDTH 444 0
DWIDTH 5 0
BBX 4 10 0 0
BITMAP
10
20
00
F0
60
60
60
60
60
F0
ENDCHAR

STARTCHAR Icircumflex
ENCODING 206
SWIDTH 444 0
DWIDTH 5 0
BBX 4 10 0 0
BITMAP
20
50
00
F0
60
60
60
60
60
F0
ENDCHAR

STARTCHAR Dcaron
ENCODING 207
SWIDTH 833 0
DWIDTH 8 0
BBX 7 10 0 0
BITMAP
28
10
00
F8
6C
66
66
66
6C
F8
ENDCHAR

STARTCHAR Dcroat
ENCODING 208
SWIDTH 833 0
DWIDTH 8 0
BBX 7 7 0 0
BITMAP
F8
6C
66
F6
66
6C
F8
ENDCHAR

STARTCHAR Nacute
ENCODING 209
SWIDTH 833 0
DWIDTH 8 0
BBX 8 10 0 0
BITMAP
04
08
00
E7
72
72
5A
4E
4E
E6
ENDCHAR

STARTCHAR Ncaron
ENCODING 210
SWIDTH 833 0
DWIDTH 8 0
BBX 8 10 0 0
BITMAP
14
08
00
E7
72
72
5A
4E
4E
E6
ENDCHAR

STARTCHAR Oacute
ENCODING 211
SWIDTH 833 0
DWIDTH 8 0
BBX 7 10 0 0
BITMAP
08
10
00
38
6C
C6
C6
C6
6C
38
ENDCHAR

STARTCHAR Ocircumflex
ENCODING 212
SWIDTH 833 0
DWIDTH 8 0
BBX 7 10 0 0
BITMAP
10
28
00
38
6C
C6
C6
C6
6C
38
ENDCHAR

STARTCHAR Ohungarumlaut
ENCODING 213
SWIDTH 833 0
DWIDTH 8 0
BBX 7 10 0 0
BITMAP
14
28
00
38
6C
C6
C6
C6
6C
38
ENDCHAR

STARTCHAR Odieresis
ENCODING 214
SWIDTH 833 0
DWIDTH 8 0
BBX 7 9 0 0
BITMAP
28
00
38
6C
C6
C6
C6
6C
38
ENDCHAR

STARTCHAR multiply
ENCODING 215
SWIDTH 650 0
DWIDTH 6 0
BBX 6 6 0 0
BITMAP
84
48
30
30
48
84
ENDCHAR

STARTCHAR Rcaron
ENCODING 216
SWIDTH 815 0
DWIDTH 8 0
BBX 8 10 0 0
BITMAP
28
10
00
FC
66
66
7C
6C
6D
E6
ENDCHAR

STARTCHAR Uring
ENCODING 217
SWIDTH 833 0
DWIDTH 8 0
BBX 7 10 0 0
BITMAP
10
28
10
EE
64
64
64
64
64
38
ENDCHAR

STARTCHAR Uacute
ENCODING 218
SWIDTH 833 0
DWIDTH 8 0
BBX 7 10 0 0
BITMAP
08
10
00
EE
64
64
64
64
64
38
ENDCHAR

STARTCHAR Uhungarumlaut
ENCODING 219
SWIDTH 833 0
DWIDTH 8 0
BBX 7 10 0 0
BITMAP
14
28
00
EE
64
64
64
64
64
38
ENDCHAR

STARTCHAR Udieresis
ENCODING 220
SWIDTH 833 0
DWIDTH 8 0
BBX 7 9 0 0
BITMAP
28
00
EE
64
64
64
64
64
38
ENDCHAR

STARTCHAR Yacute
ENCODING 221
SWIDTH 722 0
DWIDTH 7 0
BBX 8 10 -1 0
BITMAP
04
08
00
F7
62
34
18
18
18
3C
ENDCHAR

STARTCHAR Tcommaaccent
ENCODING 222
SWIDTH 722 0
DWIDTH 7 0
BBX 8 10 -1 -3
BITMAP
7E
DB
99
18
18
18
3C
00
10
20
ENDCHAR

STARTCHAR germandbls
ENCODING 223
SWIDTH 611 0
DWIDTH 6 0
BBX 6 7 0 0
BITMAP
38
6C
78
6C
6C
7C
E8
ENDCHAR

STARTCHAR racute
ENCODING 224
SWIDTH 519 0
DWIDTH 5 0
BBX 5 8 0 0
BITMAP
10
20
00
D8
68
60
60
F0
ENDCHAR

STARTCHAR aacute
ENCODING 225
SWIDTH 611 0
DWIDTH 6 0
BBX 6 8 0 0
BITMAP
10
20
00
70
98
78
D8
6C
ENDCHAR

STARTCHAR acircumflex
ENCODING 226
SWIDTH 611 0
DWIDTH 6 0
BBX 6 8 0 0
BITMAP
20
50
00
70
98
78
D8
6C
ENDCHAR

STARTCHAR abreve
ENCODING 227
SWIDTH 611 0
DWIDTH 6 0
BBX 6 8 0 0
BITMAP
48
30
00
70
98
78
D8
6C
ENDCHAR

STARTCHAR adieresis
ENCODING 228
SWIDTH 611 0
DWIDTH 6 0
BBX 6 7 0 0
BITMAP
50
00
70
98
78
D8
6C
ENDCHAR

STARTCHAR lacute
ENCODING 229
SWIDTH 352 0
DWIDTH 4 0
BBX 4 10 0 0
BITMAP
20
40
00
E0
60
60
60
60
60
F0
ENDCHAR

STARTCHAR cacute
ENCODING 230
SWIDTH 556 0
DWIDTH 6 0
BBX 5 8 0 0
BITMAP
10
20
00
70
D8
C0
C8
70
ENDCHAR

STARTCHAR ccedilla
ENCODING 231
SWIDTH 556 0
DWIDTH 6 0
BBX 5 8 0 -3
BITMAP
70
D8
C0
C8
70
20
10
60
ENDCHAR

STARTCHAR ccaron
ENCODING 232
SWIDTH 556 0
DWIDTH 6 0
BBX 5 8 0 0
BITMAP
50
20
00
70
D8
C0
C8
70
ENDCHAR

STARTCHAR eacute
ENCODING 233
SWIDTH 574 0
DWIDTH 6 0
BBX 5 8 0 0
BITMAP
10
20
00
70
D8
F8
C0
78
ENDCHAR

STARTCHAR eogonek
ENCODING 234
SWIDTH 574 0
DWIDTH 6 0
BBX 5 7 0 -2
BITMAP
70
D8
F8
C0
78
20
18
ENDCHAR

STARTCHAR edieresis
ENCODING 235
SWIDTH 574 0
DWIDTH 6 0
BBX 5 7 0 0
BITMAP
50
00
70
D8
F8
C0
78
ENDCHAR

STARTCHAR ecaron
ENCODING 236
SWIDTH 574 0
DWIDTH 6 0
BBX 5 8 0 0
BITMAP
50
20
00
70
D8
F8
C0
78
ENDCHAR

STARTCHAR iacute
ENCODING 237
SWIDTH 370 0
DWIDTH 4 0
BBX 4 8 0 0
BITMAP
20
40
00
E0
60
60
60
F0
ENDCHAR

STARTCHAR icircumflex
ENCODING 238
SWIDTH 370 0
DWIDTH 4 0
BBX 4 8 0 0
BITMAP
40
A0
00
E0
60
60
60
F0
ENDCHAR

STARTCHAR dcaron
ENCODING 239
SWIDTH 754 0
DWIDTH 6 0
BBX 7 7 0 0
BITMAP
3A
1A
7C
D8
D8
D8
6C
ENDCHAR

STARTCHAR dcroat
ENCODING 240
SWIDTH 667 0
DWIDTH 6 0
BBX 6 7 0 0
BITMAP
3C
18
78
D8
D8
D8
6C
ENDCHAR

STARTCHAR nacute
ENCODING 241
SWIDTH 685 0
DWIDTH 7 0
BBX 7 8 0 0
BITMAP
08
10
00
F8
6C
6C
6C
EE
ENDCHAR

STARTCHAR ncaron
ENCODING 242
SWIDTH 685 0
DWIDTH 7 0
BBX 7 8 0 0
BITMAP
28
10
00
F8
6C
6C
6C
EE
ENDCHAR

STARTCHAR oacute
ENCODING 243
SWIDTH 611 0
DWIDTH 6 0
BBX 5 8 0 0
BITMAP
10
20
00
70
D8
D8
D8
70
ENDCHAR

STARTCHAR ocircumflex
ENCODING 244
SWIDTH 611 0
DWIDTH 6 0
BBX 5 8 0 0
BITMAP
20
50
00
70
D8
D8
D8
70
ENDCHAR

STARTCHAR ohungarumlaut
ENCODING 245
SWIDTH 611 0
DWIDTH 6 0
BBX 5 8 0 0
BITMAP
28
50
00
70
D8
D8
D8
70
ENDCHAR

STARTCHAR odieresis
ENCODING 246
SWIDTH 611 0
DWIDTH 6 0
BBX 5 7 0 0
BITMAP
50
00
70
D8
D8
D8
70
ENDCHAR

STARTCHAR divide
ENCODING 247
SWIDTH 606 0
DWIDTH 6 0
BBX 5 5 0 1
BITMAP
20
00
F8
00
20
ENDCHAR

STARTCHAR rcaron
ENCODING 248
SWIDTH 519 0
DWIDTH 5 0
BBX 5 8 0 0
BITMAP
50
20
00
D8
68
60
60
F0
ENDCHAR

STARTCHAR uring
ENCODING 249
SWIDTH 685 0
DWIDTH 7 0
BBX 7 9 0 0
BITMAP
10
28
10
00
EC
6C
6C
6C
3E
ENDCHAR

STARTCHAR uacute
ENCODING 250
SWIDTH 685 0
DWIDTH 7 0
BBX 7 8 0 0
BITMAP
08
10
00
EC
6C
6C
6C
3E
ENDCHAR

STARTCHAR uhungarumlaut
ENCODING 251
SWIDTH 685 0
DWIDTH 7 0
BBX 7 8 0 0
BITMAP
14
28
00
EC
6C
6C
6C
3E
ENDCHAR

STARTCHAR udieresis
ENCODING 252
SWIDTH 685 0
DWIDTH 7 0
BBX 7 7 0 0
BITMAP
28
00
EC
6C
6C
6C
3E
ENDCHAR

STARTCHAR yacute
ENCODING 253
SWIDTH 611 0
DWIDTH 6 0
BBX 6 10 0 -2
BITMAP
08
10
00
EC
68
68
30
30
A0
C0
ENDCHAR

STARTCHAR tcommaaccent
ENCODING 254
SWIDTH 426 0
DWIDTH 5 0
BBX 5 9 0 -3
BITMAP
60
F0
60
60
68
30
00
20
40
ENDCHAR

STARTCHAR dotaccent
ENCODING 255
SWIDTH 333 0
DWIDTH 3 0
BBX 1 1 1 6
BITMAP
80
ENDCHAR
ENDFONT
